<?xml version="1.0" standalone="no"?><!DOCTYPE svg PUBLIC "-//W3C//DTD SVG 1.1//EN" "http://www.w3.org/Graphics/SVG/1.1/DTD/svg11.dtd"><svg t="1704099762919" class="icon" viewBox="0 0 1024 1024" version="1.1" xmlns="http://www.w3.org/2000/svg" p-id="4362" xmlns:xlink="http://www.w3.org/1999/xlink" width="128" height="128"><path d="M841.8304 694.3232c1.8944 1.5616 3.7632 2.944 5.4784 4.5056 18.7392 16.8704 24.5248 37.5808 17.92 61.7728a79.36 79.36 0 0 1-4.864 12.4928c-15.6672 33.9968-53.76 38.9632-76.416 30.0288a44.0832 44.0832 0 0 1-25.3696-23.3984c-0.7424-1.6384-1.536-3.2256-2.304-4.8384 0-0.1536-0.2816-0.2304-0.5376-0.4352a48.8448 48.8448 0 0 0-5.12-0.2304c-18.432 0.9728-36.8384 1.8944-55.2448 3.072-12.3136 0.7936-24.6272 1.92-36.9408 2.944a62.08 62.08 0 0 1-36.6336-8.2432 8.4992 8.4992 0 0 0-8.8832-0.2304 289.28 289.28 0 0 1-97.28 26.6752 222.9504 222.9504 0 0 1-95.3088-11.1872 10.24 10.24 0 0 0-9.0368 0.8192c-8.064 4.2752-16.3328 8.1408-24.5248 12.1856l-6.144 3.0208c5.12 1.3312 8.9088 2.2784 12.8 3.4304a62.6176 62.6176 0 0 1 21.4528 10.8288 36.8128 36.8128 0 0 1 8.2688 49.6384 57.9584 57.9584 0 0 1-16.1536 16.3072 123.0592 123.0592 0 0 1-45.3632 18.7392c-23.9872 5.12-48 5.9136-71.68-1.024a157.44 157.44 0 0 1-50.3552-24.7296 108.16 108.16 0 0 1-11.6992-10.24c-17.3056-17.28-20.9152-37.6576-13.0304-60.3648 5.6064-16.1792 16.1024-29.0048 28.4672-40.448l7.5008-6.8864s0-0.3328 0.2304-1.024c-2.9184-1.664-5.9648-3.4304-9.0368-5.12-2.048-1.1264-3.3536 0.4096-4.7616 1.4336-6.3232 4.6848-12.8 9.2416-18.944 14.1568-20.48 16.384-43.6992 27.9552-67.4048 38.656a37.3248 37.3248 0 0 1-11.8528 3.0464 19.9168 19.9168 0 0 1-22.0672-14.8736 66.8928 66.8928 0 0 1-3.3792-22.2208v-5.76c-2.048 1.28-3.4816 2.1248-4.864 3.0464-13.7984 9.3184-27.52 18.7904-41.4464 27.9296a92.8 92.8 0 0 1-15.2064 7.9104 35.2512 35.2512 0 0 1-10.9568 2.304 22.272 22.272 0 0 1-23.3472-15.36c-3.5584-9.4464-2.7648-18.944-0.3072-28.5184A131.6864 131.6864 0 0 1 47.36 709.12a200.1408 200.1408 0 0 1 45.5936-37.3248 291.328 291.328 0 0 1 52.736-25.2416l6.144-2.304c-0.4096-4.0192-0.8448-7.68-1.1776-11.4432a106.624 106.624 0 0 1 16.3328-68.1728c17.152-27.3152 40.96-46.6176 70.144-59.7248a250.0864 250.0864 0 0 1 70.2208-19.072c38.784-5.12 77.568-3.8912 116.3264 0.2816a749.1072 749.1072 0 0 1 125.2608 24.576 47.8208 47.8208 0 0 0 5.12 0.768l-4.3008-7.2192c-12.5696-21.0432-22.5536-43.136-27.4432-67.328a115.7376 115.7376 0 0 1 8.4224-73.9072c19.0976-40.96 50.7136-67.712 92.7232-82.8928a232.96 232.96 0 0 1 69.9648-12.8 177.6384 177.6384 0 0 1 85.4016 17.5872c25.6 12.288 45.7984 30.4896 57.9072 56.7296A119.552 119.552 0 0 1 847.36 393.216c-0.4864 64.9728-29.5424 114.5856-82.2528 151.04-17.3312 12.0064-35.84 21.8112-56.6528 26.3168-7.5008 1.6128-11.648 4.6336-13.312 11.904a87.8848 87.8848 0 0 1-3.5584 9.984c2.2528 0 3.84 0.2816 5.4272 0.256 23.04 0 46.2336-0.384 69.3248-0.1792 19.1744 0.1536 38.4 0.5632 57.4976 1.5104a68.7616 68.7616 0 0 1 19.3024 4.096 40.96 40.96 0 0 1 27.2384 30.72 59.7504 59.7504 0 0 1-0.3328 30.3104 52.5312 52.5312 0 0 1-23.04 30.72l-4.7616 3.3792s-0.1536 0.3072-0.4096 1.0496z m-244.864 58.88a9.472 9.472 0 0 0-0.5632-1.8688c-0.9472-1.3056-1.92-2.56-2.8928-3.8656a160.9984 160.9984 0 0 1-23.04-44.7488 12.0576 12.0576 0 0 1 6.8096-15.9488c6.528-2.56 12.9792 0.64 15.9232 7.8592 1.0752 2.56 1.92 5.4016 3.0464 8.0384 7.2704 17.1264 15.6416 33.28 31.2576 44.7744 9.088 6.656 18.6368 10.3936 29.952 9.1648 5.3504-0.5632 10.7008-1.1264 16.0512-1.4848q27.0848-1.7408 54.1696-3.328c10.9056-0.64 21.8112-1.28 32.7168-1.7664 8.6528-0.384 13.2864 2.7648 16.4352 10.88 1.2288 3.1744 2.2528 6.4256 3.6096 9.5488a17.92 17.92 0 0 0 10.6496 10.0352c24.6016 8.9856 51.456-3.4816 53.0432-37.0176 0.6144-12.8-5.8112-22.6304-16.3584-29.7728a76.8 76.8 0 0 0-20.48-9.5488c-21.9648-6.8864-44.6464-8.3968-67.456-8.4224a442.6752 442.6752 0 0 0-61.0304 4.3776 14.8224 14.8224 0 0 1-15.36-8.448 28.8 28.8 0 0 1-1.92-5.5808c-3.4048-14.1056-6.6816-28.16-10.112-42.3424a27.0336 27.0336 0 0 1 1.2544-16.8192c5.12-13.0048 10.0608-26.0608 15.104-39.0912q5.4016-14.0288 10.8544-28.16c2.3552-6.0416 6.6304-10.0608 13.184-10.24a68.8384 68.8384 0 0 0 21.888-4.9152 172.8 172.8 0 0 0 54.7072-32.4608c38.8864-33.9968 58.112-76.5696 54.656-128.4864a86.4768 86.4768 0 0 0-26.3168-57.8816 104.96 104.96 0 0 0-31.4624-21.0432 157.5168 157.5168 0 0 0-71.68-13.7728 208.9728 208.9728 0 0 0-69.12 13.9264c-36.2752 14.6944-61.9264 39.9872-75.9552 76.8a80.2816 80.2816 0 0 0-5.12 23.5264 110.976 110.976 0 0 0 5.3504 40.32c8.4992 27.6224 23.04 51.9168 40.5504 74.7264a46.08 46.08 0 0 1 4.6848 8.9088c3.8912 8.448-4.3776 16.512-11.776 16a48.9728 48.9728 0 0 1-10.4448-2.048c-4.2752-1.28-8.3712-3.2-12.6464-4.5312a706.2272 706.2272 0 0 0-184.704-32.1536 373.2992 373.2992 0 0 0-71.2192 4.0192c-23.68 3.7632-46.5408 10.24-67.6864 21.7856a125.6192 125.6192 0 0 0-54.9376 57.1392 69.12 69.12 0 0 0-6.1184 21.6064 97.792 97.792 0 0 0 14.464 63.7696 144.768 144.768 0 0 0 48.256 47.4368c10.24 6.4768 21.1712 12.0576 31.6416 18.2784a7.2704 7.2704 0 0 0 8.32-0.3328c11.5968-6.4 23.3984-12.4672 35.1488-18.5856a20.8896 20.8896 0 0 1 5.5296-1.9712 11.776 11.776 0 0 1 12.8 6.6304 11.5712 11.5712 0 0 1-2.56 13.7728 17.92 17.92 0 0 1-4.5056 2.8672 314.4704 314.4704 0 0 0-46.08 25.6 131.2512 131.2512 0 0 0-30.1824 27.1872 61.568 61.568 0 0 0-12.032 25.6c-1.9456 9.3952-0.4864 17.92 6.2208 24.9856a99.84 99.84 0 0 0 15.616 13.8496c24.32 16.4608 50.9184 25.1392 80.6656 22.1952a133.12 133.12 0 0 0 44.5184-11.52 57.9072 57.9072 0 0 0 17.664-12.032c8.6272-9.088 7.3216-18.6624-3.4816-24.832a48.3072 48.3072 0 0 0-21.4016-6.5024c-5.5552-0.3328-11.136-0.3328-16.6144-1.0496a228.4032 228.4032 0 0 1-23.7568-4.096c-6.7072-1.6128-11.5968-5.8624-12.1088-13.3632s4.1984-11.9808 10.4192-14.7712a81.92 81.92 0 0 1 14.208-4.864 216.7808 216.7808 0 0 0 49.7408-19.968 159.2576 159.2576 0 0 0 34.944-23.9104 54.0672 54.0672 0 0 0 12.16-15.5904 25.0624 25.0624 0 0 0 1.1776-20.3264 70.4512 70.4512 0 0 0-13.6192-23.04 90.3168 90.3168 0 0 0-31.2576-22.3232c-24.6272-11.0336-50.6624-15.0784-77.4144-15.36a30.3104 30.3104 0 0 1-4.8128-0.128 12.2624 12.2624 0 0 1-10.24-12.0064 11.9808 11.9808 0 0 1 10.5472-11.7248 44.8768 44.8768 0 0 1 7.5008-0.3328 245.4528 245.4528 0 0 1 42.1888 4.2752 170.752 170.752 0 0 1 55.7824 20.224c20.8384 12.4928 36.1216 29.6448 44.3392 52.8128a47.5648 47.5648 0 0 1-3.84 41.3696 88.2688 88.2688 0 0 1-17.3824 21.0688c-1.536 1.408-3.0208 2.8672-5.4528 5.12 54.4512 13.1072 105.344 4.4032 155.392-16.0768zM158.2336 667.4944c-1.8688 0.5632-3.0976 0.8448-4.2496 1.28a271.5648 271.5648 0 0 0-53.76 26.6752 160.9472 160.9472 0 0 0-42.6496 38.8608 100.5312 100.5312 0 0 0-17.92 39.2448c-0.7168 3.456-1.6128 7.0144 0.896 10.6496a20.1728 20.1728 0 0 0 4.0192-0.9216 65.9968 65.9968 0 0 0 8.1152-4.1728q31.7952-20.096 61.6704-42.88a47.488 47.488 0 0 1 4.7104-3.5328 14.1568 14.1568 0 0 1 15.36-0.256 14.3104 14.3104 0 0 1 7.3216 13.44 32.9216 32.9216 0 0 1-0.7936 5.8368c-0.9216 4.3776-2.0992 8.704-2.8928 13.1072a35.2256 35.2256 0 0 0 1.3312 20.736A278.4 278.4 0 0 0 217.6 738.304c-26.0352-18.5344-47.0272-40.8064-59.3664-70.8096z m525.7472 7.2448c1.28 0 1.8176 0.1536 2.3552 0 15.872-1.0496 31.744-2.56 47.6416-3.072a262.9888 262.9888 0 0 1 71.936 6.7584 13.2096 13.2096 0 0 0 6.3232 0.1792 103.9616 103.9616 0 0 0 16.3072-5.12c15.5648-7.04 22.0928-19.7632 19.4048-36.6592-1.4848-9.2416-6.6048-15.36-15.8208-17.5104a78.4896 78.4896 0 0 0-15.36-1.9712c-20.48-0.4864-40.7808-0.768-61.184-0.9472-16.2816-0.1536-32.5632 0-48.8448 0-6.4512 0-12.8 0.1536-19.328 0a5.7344 5.7344 0 0 0-6.3232 4.4544 131.0208 131.0208 0 0 1-4.8128 12.5184 11.4944 11.4944 0 0 0-0.4352 7.68c2.048 8.1408 3.9424 16.3584 5.9136 24.5248 0.64 3.072 1.408 5.9904 2.2272 9.1648zM94.4896 574.8736a87.04 87.04 0 0 1 4.6592-13.7984A214.1696 214.1696 0 0 1 113.9456 535.04c17.92-25.984 39.8848-48.2816 63.1808-69.4016a11.648 11.648 0 0 1 12.8-2.56 10.9056 10.9056 0 0 1 6.912 9.4976 11.9552 11.9552 0 0 1-4.5568 10.3936c-6.144 5.76-12.544 11.2896-18.2784 17.4336-11.5712 12.4672-23.04 25.0624-34.0224 38.016a181.76 181.76 0 0 0-14.08 20.2752 62.1568 62.1568 0 0 0-8.9088 21.7344c-1.152 6.016-4.8128 9.472-9.7024 10.0864-7.7824 0.8448-13.6448-4.864-12.8-15.6416zM941.5936 745.6768a96.0768 96.0768 0 0 1-8.9856 37.1456A198.4768 198.4768 0 0 1 903.68 827.136a11.392 11.392 0 0 1-16.64 2.048c-5.12-4.1472-5.4016-10.9568-1.1008-16.8192 6.3232-8.6528 12.8-17.2032 18.7392-26.1376a86.144 86.144 0 0 0 12.2368-27.8528 43.6736 43.6736 0 0 0 0.7424-18.6112 28.16 28.16 0 0 0-13.1072-18.816c-0.896-0.5888-1.92-0.9984-2.7904-1.5872a11.4432 11.4432 0 0 1-4.1216-15.0528 11.264 11.264 0 0 1 15.1296-5.12 45.7472 45.7472 0 0 1 9.0112 5.7344c14.5664 11.8784 20.4544 27.4688 19.8144 40.7552zM737.28 234.0608a11.4432 11.4432 0 0 1-10.24-15.36 22.784 22.784 0 0 1 1.6384-3.3792c13.8752-24.6016 27.6736-49.2544 41.728-73.728a223.6416 223.6416 0 0 1 12.5696-18.7136 10.88 10.88 0 0 1 12.1856-4.7616 11.3664 11.3664 0 0 1 6.8608 17.5616c-20.0448 28.8512-35.84 60.1856-52.9664 90.7008-3.2256 5.6576-6.656 7.9616-11.776 7.68zM896 366.7456c2.0992-0.3072 4.224-0.512 6.272-0.9728a585.3184 585.3184 0 0 1 64.896-11.4432 117.9392 117.9392 0 0 1 30.4896 0c7.3472 1.1264 11.5968 6.1184 11.008 12.8a11.0336 11.0336 0 0 1-12.544 10.3936c-14.0544-2.56-27.8528-0.256-41.5488 1.9968-16.9216 2.7904-33.664 6.6048-50.5088 9.728a33.9456 33.9456 0 0 1-11.1104 0.2816 11.5456 11.5456 0 0 1-10.24-12.8c0.6144-6.7072 5.9648-10.8032 13.2864-9.984zM827.776 258.3296a10.8288 10.8288 0 0 1 3.7888-8.0128 18.6624 18.6624 0 0 1 3.072-2.1504l78.3104-44.8512q1.152-0.6656 2.3808-1.2544c6.8608-3.328 13.568-1.4848 16.6144 4.5568s0.6912 12.2112-5.7344 15.8208c-4.3776 2.56-8.8064 4.7872-13.1584 7.2704l-64.7424 37.2224a34.2784 34.2784 0 0 1-5.12 2.7136 11.392 11.392 0 0 1-15.4112-11.3152zM611.1488 156.672a152.9344 152.9344 0 0 0 2.944 34.688c2.56 14.4384 5.8112 28.7744 8.576 43.1616a21.5552 21.5552 0 0 1 0.2816 8.3968 10.8288 10.8288 0 0 1-10.0352 8.3456 11.4432 11.4432 0 0 1-11.4944-7.168 30.5664 30.5664 0 0 1-1.3312-4.6336 467.6608 467.6608 0 0 1-11.6992-67.1232c-0.4864-5.8624-0.4864-11.8016-0.4608-17.7152a27.9808 27.9808 0 0 1 1.0496-6.8864 11.3664 11.3664 0 0 1 22.4256 3.0208c0.0256 1.9968-0.1536 3.968-0.256 5.9136zM950.7072 643.968c-0.1536 0.7936-0.3328 2.56-0.7936 4.3008a11.4176 11.4176 0 0 1-22.4768-2.8416c0-2.56 0.256-5.376 0-8.0384a36.1984 36.1984 0 0 0-9.1136-19.6864 96.6144 96.6144 0 0 0-29.7472-22.6048c-1.4336-0.7424-2.9184-1.3568-4.3008-2.176a11.4944 11.4944 0 0 1 8.8064-21.0944 11.136 11.136 0 0 1 1.9968 0.768c16.6912 7.9872 31.5904 18.304 43.0592 33.0496a56.6528 56.6528 0 0 1 12.5696 38.3232zM456.3712 246.7072a11.5456 11.5456 0 0 1 9.088 4.8896q20.3264 25.2928 40.7552 50.5088a42.112 42.112 0 0 1 3.328 4.1984 11.4944 11.4944 0 0 1-17.28 14.72 18.2784 18.2784 0 0 1-2.2272-2.304c-12.8-15.36-25.6-30.848-38.2208-46.3616a48.0768 48.0768 0 0 1-6.1952-9.3696 11.2896 11.2896 0 0 1 10.752-16.2816z" p-id="4363"></path><path d="M695.8848 477.2608a108.3648 108.3648 0 0 1-71.68-31.2576 157.0304 157.0304 0 0 1-32.9472-45.4144 27.52 27.52 0 0 1-2.1248-5.4784 11.9552 11.9552 0 0 1 21.2224-9.9072 35.0464 35.0464 0 0 1 2.8416 5.12 129.9968 129.9968 0 0 0 36.3264 45.312c18.688 14.4896 39.9872 19.4048 63.2064 16.8448a52.9664 52.9664 0 0 0 26.368-11.2384 92.16 92.16 0 0 0 21.0176-22.8096c4.5312-6.8608 8.576-14.0544 12.8-21.12a12.3904 12.3904 0 0 1 13.44-6.6048 11.9552 11.9552 0 0 1 8.2688 16.7936 140.8 140.8 0 0 1-7.5008 13.6448 146.944 146.944 0 0 1-25.6 32.4352c-20.5056 19.1232-40.9856 24.7296-65.6384 23.68zM723.5072 353.0496c1.6896-8.1664 3.456-17.92 5.8624-27.7504a11.4688 11.4688 0 0 1 14.208-8.2688 11.9552 11.9552 0 0 1 9.0368 13.8496c-1.664 9.1648-3.456 18.2784-5.4528 27.3664-1.8688 8.4736-9.9072 12.5184-17.2288 8.9344-4.7104-2.3296-7.04-6.7328-6.4256-14.1312zM674.6624 346.9056c-0.3072 8.1408-5.2736 13.3376-12.288 13.2608s-11.52-5.12-11.8272-12.6464c-0.3584-8.2176-0.7424-16.4352-0.6912-24.6784a11.7504 11.7504 0 0 1 10.8032-11.9552 11.904 11.904 0 0 1 13.1072 11.264c0.4864 8.3968 0.6144 16.8192 0.896 24.7552z" p-id="4364"></path></svg>