<?xml version="1.0" standalone="no"?><!DOCTYPE svg PUBLIC "-//W3C//DTD SVG 1.1//EN" "http://www.w3.org/Graphics/SVG/1.1/DTD/svg11.dtd"><svg t="1704100066076" class="icon" viewBox="0 0 1024 1024" version="1.1" xmlns="http://www.w3.org/2000/svg" p-id="1779" xmlns:xlink="http://www.w3.org/1999/xlink" width="128" height="128"><path d="M1012.51464 860h-0.12c-22.9-0.2-35.17-9-45-16-8.94-6.39-16-11.44-31.41-11.57-15 0.15-22.55 4.81-31.59 11.06-10 6.87-22.83 14.85-45.27 15.25-22.92-0.2-35.17-9-45-16-8.92-6.39-16-11.44-31.38-11.57-14.63-0.4-22.5 4.81-31.52 11-9.85 6.8-22.08 15.26-44.51 15.26h-0.73c-22.9-0.2-35.14-9-45-16-8.91-6.39-16-11.44-31.33-11.57h-0.56c-15 0-22.05 4.89-31 11-9.85 6.82-22.07 15.26-44.49 15.26h-0.73c-22.9-0.19-35.15-9-45-16-8.92-6.39-16-11.43-31.35-11.55h-0.6c-15 0-22 4.87-30.93 11-9.94 6.9-22.84 15.77-45.25 15.25-22.87-0.19-35.11-9-44.94-16-8.92-6.39-16-11.43-31.33-11.55-14.72-0.08-22.49 4.78-31.49 11-9.94 6.88-22.55 16.1-45.22 15.25-22.87-0.19-35.12-9-45-16-8.92-6.39-16-11.43-31.33-11.55a11.88 11.88 0 0 1 0.09-23.75h0.09c22.89 0.19 35.14 9 45 16 8.92 6.39 16 11.43 31.33 11.55 15.2-0.29 22.47-4.79 31.49-11 9.94-6.88 23-15 45.22-15.25 22.89 0.19 35.12 9 45 16 8.92 6.39 16 11.43 31.32 11.55 15.26-0.22 22.52-4.81 31.55-11 9.84-6.8 22.07-15.25 44.46-15.25h0.77c22.89 0.19 35.14 9 45 16 8.92 6.39 16 11.43 31.35 11.55 15.23-0.42 22.5-4.81 31.53-11 10-6.88 22.86-14.88 45.23-15.26 22.9 0.2 35.14 9 45 16 8.91 6.39 16 11.44 31.33 11.57 15.14-0.42 22.5-4.81 31.52-11 9.85-6.8 22.08-15.26 44.51-15.26h0.73c22.9 0.2 35.15 9 45 16 8.92 6.39 16 11.44 31.39 11.57s22.52-4.81 31.58-11c10-6.88 22.07-14.85 45.28-15.26 22.92 0.2 35.18 9 45 16 8.94 6.39 16 11.44 31.41 11.57a11.88 11.88 0 0 1-0.11 23.75zM219.51464 758.32c-21.25 0-32.55-8.88-41.63-16-8.07-6.34-13.9-10.93-26.94-10.93a11.88 11.88 0 1 1 0-23.75c21.25 0 32.55 8.88 41.63 16 8.07 6.34 13.9 10.93 26.94 10.93S238.39464 730 246.45464 723.64c9.08-7.13 20.38-16 41.63-16a11.88 11.88 0 0 1 0 23.75c-13 0-18.87 4.59-26.94 10.93-9.08 7.13-20.38 16-41.63 16z" fill="#2c2c2c" p-id="1780"></path><path d="M80.84464 758.32c-21.25 0-32.55-8.88-41.62-16-8.09-6.34-13.92-10.93-27-10.93a11.88 11.88 0 1 1 0-23.75c21.25 0 32.55 8.88 41.62 16 8.09 6.34 13.92 10.93 27 10.93s18.88-4.59 27-10.93c9.08-7.13 20.37-16 41.62-16a11.88 11.88 0 1 1 0 23.75c-13 0-18.87 4.58-27 10.93-9.07 7.13-20.36 16-41.62 16zM341.65464 664.44a15.6 15.6 0 0 1-3-0.29l-3.32-0.68a15.83 15.83 0 1 1 6.46-31l2.89 0.59a15.83 15.83 0 0 1-3 31.38zM212.09464 508.37a15.56 15.56 0 0 1-3.25-0.34l-3.11-0.65a15.83 15.83 0 0 1 6.46-31l3.11 0.65a15.83 15.83 0 0 1-3.22 31.33z" fill="#2c2c2c" p-id="1781"></path><path d="M463.39464 677.75a598.48 598.48 0 0 1-84.36-6.56 15.81 15.81 0 0 1-13.39-17.94 15.63 15.63 0 0 1 17.94-13.39c53.54 7.76 102.45 8.41 130.79 1.65 58-13.78 70.18-21.19 80-27.13l4.7-2.8c4.75-2.74 14.07-8.51 23.51-14.32 10.55-6.53 21.22-13.11 26.27-16 60.82-34.41 121.24-35.82 179.64-4.14 10.31 5.58 21.31 13.7 33 22.28 18.19 13.42 38.8 28.63 53.85 31.07l0.85 0.14c-2.85-9.53-11.1-25.84-14.23-32-2.91-5.72-7-11.35-11.4-17.31-5.78-7.89-11.74-16-16.05-25.81-11.47-26.2-13-54.61-4.84-89.45 0.49-2.13 1.33-4.84 2.32-7.73 1.81-5.29 4.42-11.86 7.24-18.91 4.53-11.27 10.05-25.05 12.22-34.66-13.59 2.49-39.39 14.38-50.29 19.41-9 4.16-16.78 7.75-22.69 9.79-38.79 13.45-74 24.79-111.49 27.23-23.65 1.55-143.25 6.62-171.35-44.35-16.93-30.71 1.39-48.73 12.34-59.49 4.36-4.3 8.24-8.12 10-12-6.8-3.63-25-6.06-54.2-7.21l-5.12-0.22c-41.52-1.81-87.22 3.68-140 16.76-7.72 1.9-16 4-24.71 6.37l-11.4 3.14c-93.5 26.43-151.72 60.58-173 101.46-11.29 21.73-13 41.43-5.1 60.24 15 35.94 65.11 68.63 141 92.06a11.49 11.49 0 0 0 13.78-6c15.85-34.9 33-104.94-30-181.85A15.84 15.84 0 0 1 293.69464 410c76.64 93.52 49.56 181.51 34.35 215a43 43 0 0 1-52 23.21c-60.17-18.56-136.94-52.73-160.93-110.11-11.54-27.6-9.45-56.91 6.25-87.07 25.81-49.63 88.78-88 192.51-117.32l11.75-3.25c8.91-2.4 17.43-4.56 25.33-6.53 55.72-13.83 104.46-19.61 148.93-17.66l5 0.2c35.91 1.42 66.68 3.93 79.71 20.51a26.67 26.67 0 0 1 5.18 22.05c-2.88 14.23-12.23 23.44-19.75 30.84-10.78 10.59-12 12.29-6.8 21.64 12.85 23.35 82.5 31.9 141.56 28 33.61-2.1 66.61-12.77 103.16-25.45 4.44-1.55 11.91-5 19.81-8.64 34.67-16 62.63-27.65 81.76-20.32a20.59 20.59 0 0 1 6.31 4c7 6.15 9.36 15.59 7.27 28.16-2.17 12.94-8.77 29.43-14.58 44-2.6 6.46-5 12.5-6.7 17.4a47.52 47.52 0 0 0-1.42 4.64c-6.63 28.27-5.71 49.69 3 69.55 2.89 6.59 7.59 13 12.59 19.81s10 13.67 14.09 21.7c15.17 30 25 52.35 13.72 67.83-6.57 9-17.89 12.19-33.65 9.65-22.61-3.68-45.47-20.54-67.58-36.85-10.74-7.99-20.87-15.45-29.25-19.99-48.82-26.47-97.57-25.2-148.92 3.86-4.84 2.75-15.11 9.09-25.24 15.36-9.77 6-19.42 12-24.37 14.83l-4 2.4c-12.29 7.48-26.24 16-89.09 30.88-15.3 3.61-35.3 5.42-58.3 5.42zM870.86464 191.72h-21.69a4 4 0 1 1 0-7.92h21.68a4 4 0 1 1 0 7.92z" fill="#2c2c2c" p-id="1782"></path><path d="M860.01464 207.67a4 4 0 0 1-4-4v-31.83a4 4 0 1 1 7.92 0v31.87a4 4 0 0 1-3.92 3.96zM727.45464 663.89h-21.67a4 4 0 0 1 0-7.92h21.67a4 4 0 0 1 0 7.92z" fill="#2c2c2c" p-id="1783"></path><path d="M716.63464 679.82a4 4 0 0 1-4-4V644a4 4 0 0 1 7.92 0v31.87a4 4 0 0 1-3.92 3.95zM62.39464 581.9H40.68464a4 4 0 1 1 0-7.92H62.39464a4 4 0 1 1 0 7.92z" fill="#2c2c2c" p-id="1784"></path><path d="M51.52464 597.84a4 4 0 0 1-4-4V562a4 4 0 0 1 7.92 0v31.89a4 4 0 0 1-3.92 3.95zM116.17464 378a13.93 13.93 0 1 1 13.92-13.93A13.95 13.95 0 0 1 116.17464 378z m0-19.93a6 6 0 1 0 6 6 6 6 0 0 0-6-5.99zM161.55464 185a18.35 18.35 0 1 1 18.34-18.34A18.36 18.36 0 0 1 161.55464 185z m0-28.78a10.43 10.43 0 1 0 10.42 10.44 10.44 10.44 0 0 0-10.42-10.43zM886.44464 792a19.56 19.56 0 1 1 19.56-19.56A19.57 19.57 0 0 1 886.44464 792z m0-31.19a11.64 11.64 0 1 0 11.64 11.63 11.64 11.64 0 0 0-11.64-11.64zM353.54464 215.14A15.84 15.84 0 1 1 369.39464 199.29a15.86 15.86 0 0 1-15.85 15.85z m0-23.77a7.93 7.93 0 1 0 7.93 7.92 7.93 7.93 0 0 0-7.93-7.92zM440.84464 875.68a14.18 14.18 0 1 1 14.18-14.18 14.19 14.19 0 0 1-14.18 14.18z m0-20.44a6.26 6.26 0 1 0 6.26 6.26 6.28 6.28 0 0 0-6.26-6.26zM942.39464 454.19A14.18 14.18 0 1 1 956.56464 440 14.19 14.19 0 0 1 942.39464 454.19z m0-20.44a6.26 6.26 0 1 0 6.26 6.26 6.28 6.28 0 0 0-6.26-6.26zM73.18464 696.71a20.37 20.37 0 1 1 20.37-20.37 20.39 20.39 0 0 1-20.37 20.37z m0-32.82a12.45 12.45 0 1 0 12.45 12.45 12.46 12.46 0 0 0-12.45-12.45zM626.98464 375a4 4 0 0 1-2.83-6.73L646.86464 345a4 4 0 0 1 5.66 5.54l-22.72 23.23a4 4 0 0 1-2.82 1.23z" fill="#2c2c2c" p-id="1785"></path><path d="M649.94464 374.73a3.92 3.92 0 0 1-2.77-1.13l-23.21-22.7a4 4 0 1 1 5.54-5.66l23.21 22.7a4 4 0 0 1-2.77 6.79zM513.63464 366.89a7.92 7.92 0 0 1-1.35-0.12 9.35 9.35 0 0 1-1.05-0.25c-4.31-0.59-7.93-4.62-7.38-8.94s3.84-7.48 8.23-6.91a9.25 9.25 0 0 1 2.27 0.57v-0.19c4.21 0.91 7.39 5.12 6.56 9.36a7.61 7.61 0 0 1-7.28 6.48zM369.33464 379a7.92 7.92 0 0 1-1.93-15.6c2.72-0.66 67.36-16.56 122-14.72a7.92 7.92 0 1 1-0.56 15.84c-52.7-2-116.91 14.1-117.55 14.26a8.36 8.36 0 0 1-1.96 0.22z" fill="#2c2c2c" p-id="1786"></path></svg>