<?xml version="1.0" standalone="no"?><!DOCTYPE svg PUBLIC "-//W3C//DTD SVG 1.1//EN" "http://www.w3.org/Graphics/SVG/1.1/DTD/svg11.dtd"><svg t="1704097300682" class="icon" viewBox="0 0 1024 1024" version="1.1" xmlns="http://www.w3.org/2000/svg" p-id="4755" xmlns:xlink="http://www.w3.org/1999/xlink" width="48" height="48"><path d="M611.7376 823.296c-0.4096-3.6864-11.4688-88.8832-100.5568-88.8832-5.7344 0-10.24-4.5056-10.24-10.24s4.5056-10.24 10.24-10.24c55.0912 0 84.992 28.0576 100.5568 52.224V287.1296c-0.8192 1.024-1.6384 2.048-2.4576 3.2768-21.9136 28.2624-52.0192 43.008-86.8352 43.008h-11.0592c-35.0208 0-64.9216-14.9504-86.8352-43.008-0.8192-1.024-1.6384-2.2528-2.4576-3.2768L421.888 653.312c0 5.7344-4.5056 10.24-10.24 10.24-5.5296 0-10.24-4.5056-10.24-10.24l0.2048-482.0992 20.0704 70.8608c0.8192 2.8672 21.0944 70.8608 89.7024 70.8608h11.0592c68.8128 0 89.4976-70.0416 89.7024-70.8608l20.0704-71.0656v651.0592l-20.48 1.2288z" fill="#2c2c2c" p-id="4756"></path><path d="M498.2784 395.0592c-4.9152 11.4688-16.384 19.6608-29.696 19.6608-17.8176 0-32.1536-14.336-32.1536-32.1536 0-5.9392 1.6384-11.4688 4.5056-16.384l57.344 28.8768zM535.7568 395.0592c4.9152 11.4688 16.384 19.6608 29.696 19.6608 17.8176 0 32.1536-14.336 32.1536-32.1536 0-5.9392-1.6384-11.4688-4.5056-16.384l-57.344 28.8768zM140.6976 889.0368L116.736 846.848C77.2096 776.8064 54.272 704.1024 48.5376 630.784c-4.9152-63.0784 3.072-128.6144 23.3472-194.3552C107.9296 319.8976 174.8992 222.8224 234.7008 141.312l26.0096-35.6352-7.7824 43.4176c-15.9744 89.9072-4.9152 160.3584 33.3824 209.1008 47.9232 61.44 122.88 67.3792 123.4944 67.3792 5.7344 0.4096 9.8304 5.3248 9.4208 10.8544-0.4096 5.7344-5.3248 9.8304-10.8544 9.4208-3.4816-0.2048-84.7872-6.5536-138.24-75.1616-35.84-45.8752-50.176-107.7248-43.008-184.5248C135.168 315.1872-5.3248 542.1056 114.8928 798.3104c3.6864-58.5728 24.9856-117.3504 57.1392-152.9856 23.1424-25.3952 50.9952-38.912 80.896-38.912 51.4048 0 93.7984 20.6848 125.952 61.44 22.3232 28.2624 36.0448 63.0784 39.7312 99.9424 15.36-24.576 45.2608-53.8624 101.5808-53.8624 5.7344 0 10.24 4.5056 10.24 10.24s-4.5056 10.24-10.24 10.24c-37.6832 0-65.9456 14.7456-84.1728 44.032-13.9264 22.3232-16.5888 44.4416-16.5888 44.6464l-20.48-1.2288v-34.4064c0-39.5264-12.9024-77.4144-36.2496-107.1104-28.0576-35.6352-65.1264-53.6576-109.9776-53.6576-24.3712 0-46.4896 10.8544-65.7408 32.1536-36.864 40.7552-57.9584 115.3024-51.2 181.6576l4.9152 48.5376z" fill="#2c2c2c" p-id="4757"></path><path d="M893.5424 889.0368l4.9152-48.3328c6.5536-66.1504-14.336-140.9024-51.2-181.6576-19.2512-21.2992-41.3696-32.1536-65.7408-32.1536-35.6352 0-66.56 11.4688-91.5456 34.2016-4.096 3.8912-10.6496 3.4816-14.5408-0.8192-3.8912-4.096-3.4816-10.6496 0.8192-14.5408 29.0816-26.2144 64.512-39.5264 105.472-39.5264 29.9008 0 57.9584 13.5168 80.896 38.912 32.1536 35.6352 53.4528 94.4128 57.1392 152.9856 120.2176-256.4096-20.2752-483.328-112.64-612.1472 7.168 76.8-7.168 138.6496-43.008 184.5248-53.6576 68.608-134.9632 74.9568-138.24 75.1616-5.7344 0.4096-10.4448-3.8912-10.8544-9.4208-0.4096-5.7344 3.8912-10.4448 9.4208-10.8544 1.4336-0.2048 76.1856-6.3488 123.6992-67.584 38.0928-48.9472 49.152-119.1936 33.1776-208.896l-7.7824-43.4176 26.0096 35.6352c59.8016 81.7152 126.7712 178.5856 162.816 295.1168 20.2752 65.9456 28.2624 131.2768 23.3472 194.3552-5.7344 73.3184-28.672 146.0224-68.1984 216.064l-23.9616 42.3936z" fill="#2c2c2c" p-id="4758"></path></svg>