<?xml version="1.0" standalone="no"?><!DOCTYPE svg PUBLIC "-//W3C//DTD SVG 1.1//EN" "http://www.w3.org/Graphics/SVG/1.1/DTD/svg11.dtd"><svg t="1706600391827" class="icon" viewBox="0 0 1024 1024" version="1.1" xmlns="http://www.w3.org/2000/svg" p-id="1480" xmlns:xlink="http://www.w3.org/1999/xlink" width="128" height="128"><path d="M500.09959 799.58a362.35 362.35 0 0 1-255-104.33C102.20959 554.6 100.43959 324 241.09959 181.13A361.18 361.18 0 0 1 497.30959 72.67c96.33-1 188.69 36.36 257.87 104.49A363.38 363.38 0 0 1 500.09959 799.58z m0.09-690.58h-2.59a325 325 0 0 0-230.64 97.6c-126.61 128.56-125 336.17 3.55 462.76s336.19 124.95 462.76-3.56a327.22 327.22 0 0 0-3.55-462.8 325.09 325.09 0 0 0-229.53-94z" p-id="1481" fill="#2c2c2c"></path><path d="M500.09959 640.31a202.71 202.71 0 0 1-143.15-58.67c-80.19-79-81.2-208.46-2.25-288.64s208.4-81.21 288.6-2.23 81.2 208.44 2.25 288.61a202.67 202.67 0 0 1-143.86 60.9c-0.53 0.03-1.08 0.03-1.59 0.03z m0-371.82a167.25 167.25 0 0 0-119.57 50c-64.91 65.92-64.1 172.37 1.83 237.28 32 31.45 74 48.35 119 48.24A167.75 167.75 0 0 0 500.09959 268.49z" p-id="1482" fill="#2c2c2c"></path><path d="M350.97959 324.55a30.35 30.35 0 0 1-21.44-8.76l-86.2-84.89a30.6 30.6 0 0 1-0.35-43.21l4.66-4.74a30.65 30.65 0 0 1 43.23-0.34l86.2 84.9a30.61 30.61 0 0 1 0.35 43.22l-4.66 4.73a30.32 30.32 0 0 1-21.52 9.09zM269.43959 192a12.39 12.39 0 0 0-8.85 3.71l-4.66 4.73A12.41 12.41 0 0 0 256.09959 218l86.22 84.9c2.36 2.31 5.09 4.26 8.79 3.54a12.28 12.28 0 0 0 8.74-3.68l4.66-4.72a12.43 12.43 0 0 0-0.14-17.54L278.09959 195.56a12.38 12.38 0 0 0-8.66-3.56z m101.53 112.37zM730.78959 698.53a30.35 30.35 0 0 1-21.44-8.76L623.09959 604.88a30.6 30.6 0 0 1-0.35-43.21l4.66-4.73a30.34 30.34 0 0 1 21.58-9.1 29.14 29.14 0 0 1 21.65 8.78l86.2 84.88a30.6 30.6 0 0 1 0.35 43.21l-4.66 4.73a30.36 30.36 0 0 1-21.54 9.1zM649.23959 566h-0.09a12.31 12.31 0 0 0-8.76 3.67l-4.66 4.73a12.48 12.48 0 0 0 0.14 17.54L722.09959 676.83a12.41 12.41 0 0 0 17.55-0.12l4.65-4.71a12.42 12.42 0 0 0-0.14-17.54l-86.22-84.89a12.3 12.3 0 0 0-8.7-3.57z m101.53 112.34zM645.44959 320.73a30.35 30.35 0 0 1-21.19-8.54l-4.77-4.6a30.6 30.6 0 0 1-0.78-43.22l84-87.12a30.6 30.6 0 0 1 43.23-0.79l4.77 4.6a30.6 30.6 0 0 1 0.78 43.22l-84 87.12a30.4 30.4 0 0 1-21.45 9.32z m79.24-134.66a12.45 12.45 0 0 0-9 3.79l-84 87.12a12.18 12.18 0 0 0-3.46 8.83 12.32 12.32 0 0 0 3.76 8.71l4.8 4.61a12.43 12.43 0 0 0 17.52-0.33l84-87.12a12.18 12.18 0 0 0 3.46-8.83 12.32 12.32 0 0 0-3.76-8.71l-4.79-4.6a12.33 12.33 0 0 0-8.53-3.48zM275.53959 704.47a30.43 30.43 0 0 1-21.19-8.53l-4.79-4.61a30.61 30.61 0 0 1-0.8-43.21l84-87.13a30.62 30.62 0 0 1 43.21-0.8l4.79 4.61a30.61 30.61 0 0 1 0.8 43.21l-84 87.13a30.56 30.56 0 0 1-22.02 9.33z m79.2-134.66a12.44 12.44 0 0 0-8.94 3.79l-84 87.11a12.46 12.46 0 0 0 0.3 17.54l4.79 4.61a12.46 12.46 0 0 0 17.55-0.32l84-87.11a12.46 12.46 0 0 0-0.3-17.54l-4.79-4.61a12.38 12.38 0 0 0-8.61-3.47zM548.44959 918.94h-46a13.62 13.62 0 0 1 0-27.23h46a13.62 13.62 0 1 1 0 27.23zM972.83959 918.94H594.70959a13.62 13.62 0 1 1 0-27.23h378.13a13.62 13.62 0 1 1 0 27.23zM384.66959 1016H27.38959a13.62 13.62 0 1 1 0-27.23h357.28a13.62 13.62 0 1 1 0 27.23zM463.70959 918.94h-8.19a13.62 13.62 0 0 1 0-27.23h8.19a13.62 13.62 0 1 1 0 27.23zM88.74959 105.08h-52.2a4.54 4.54 0 0 1 0-9.08h52.2a4.54 4.54 0 0 1 0 9.08z" p-id="1483" fill="#2c2c2c"></path><path d="M62.64959 131.18a4.54 4.54 0 0 1-4.55-4.54v-52.2a4.54 4.54 0 1 1 9.08 0v52.2a4.54 4.54 0 0 1-4.53 4.54zM43.83959 619.33a4.52 4.52 0 0 1-3-1.13l-39.2-34.47a4.54 4.54 0 1 1 6-6.81l39.2 34.47a4.52 4.52 0 0 1 0.41 6.4 4.47 4.47 0 0 1-3.41 1.54z" p-id="1484" fill="#2c2c2c"></path><path d="M7.01959 621.71a4.54 4.54 0 0 1-3.4-7.54L38.09959 575a4.54 4.54 0 0 1 6.81 6l-34.49 39.16a4.47 4.47 0 0 1-3.4 1.55zM375.02959 946.14a4.52 4.52 0 0 1-3-1.13l-39.22-34.47a4.54 4.54 0 1 1 6-6.81l39.22 34.47a4.52 4.52 0 0 1 0.41 6.4 4.47 4.47 0 0 1-3.41 1.54z" p-id="1485" fill="#2c2c2c"></path><path d="M338.17959 948.51a4.54 4.54 0 0 1-3.4-7.54l34.47-39.22a4.54 4.54 0 0 1 6.81 6L341.58959 947a4.47 4.47 0 0 1-3.41 1.51zM240.89959 822.06a4.52 4.52 0 0 1-3-1.13l-23.1-20.3a4.54 4.54 0 0 1 6-6.81l23.1 20.3a4.52 4.52 0 0 1 0.41 6.4 4.47 4.47 0 0 1-3.41 1.54z" p-id="1486" fill="#2c2c2c"></path><path d="M219.18959 823.46a4.54 4.54 0 0 1-3.4-7.54l20.3-23.1a4.54 4.54 0 0 1 6.81 6l-20.3 23.1a4.47 4.47 0 0 1-3.41 1.54zM963.82959 501.69a4.52 4.52 0 0 1-3-1.13l-23.08-20.28a4.54 4.54 0 0 1 6-6.82l23.08 20.29a4.52 4.52 0 0 1 0.41 6.4 4.47 4.47 0 0 1-3.41 1.54z" p-id="1487" fill="#2c2c2c"></path><path d="M942.09959 503.09a4.54 4.54 0 0 1-3.4-7.54l20.28-23.08a4.54 4.54 0 1 1 6.81 6l-20.28 23.08a4.47 4.47 0 0 1-3.41 1.54zM366.95959 490.15a4.52 4.52 0 0 1-3-1.13l-23.08-20.28a4.54 4.54 0 0 1 6-6.83l23.08 20.3a4.52 4.52 0 0 1 0.41 6.4 4.47 4.47 0 0 1-3.41 1.54z" p-id="1488" fill="#2c2c2c"></path><path d="M345.27959 491.55a4.54 4.54 0 0 1-3.4-7.54l20.28-23.09a4.54 4.54 0 1 1 6.81 6L348.67959 490a4.47 4.47 0 0 1-3.4 1.55zM894.73959 185.85a4.56 4.56 0 0 1-3-1.13l-39.22-34.45a4.54 4.54 0 0 1 6-6.83l39.22 34.45a4.54 4.54 0 0 1-3 8z" p-id="1489" fill="#2c2c2c"></path><path d="M857.88959 188.23a4.53 4.53 0 0 1-3.4-7.54l34.47-39.2a4.54 4.54 0 1 1 6.81 6l-34.47 39.2a4.5 4.5 0 0 1-3.41 1.54zM159.15959 953.94a4.54 4.54 0 0 1-0.3-9.06l27.75-1.81c2.93-0.53 4.68 1.74 4.82 4.22a4.52 4.52 0 0 1-4.22 4.82l-27.75 1.81a1.82 1.82 0 0 1-0.3 0.02z" p-id="1490" fill="#2c2c2c"></path><path d="M173.92959 966.92a4.52 4.52 0 0 1-4.52-4.24l-1.81-27.75a4.52 4.52 0 0 1 4.22-4.82c2.93-0.39 4.68 1.74 4.82 4.22l1.81 27.75a4.52 4.52 0 0 1-4.22 4.82 1.82 1.82 0 0 1-0.3 0.02zM1019.55959 830.39a4.52 4.52 0 0 1-3-1.13l-39.22-34.47a4.54 4.54 0 1 1 6-6.81l39.22 34.47a4.52 4.52 0 0 1 0.41 6.4 4.47 4.47 0 0 1-3.41 1.54z" p-id="1491" fill="#2c2c2c"></path><path d="M982.71959 832.77a4.54 4.54 0 0 1-3.4-7.54l34.46-39.23a4.54 4.54 0 0 1 6.81 6L986.09959 831.23a4.47 4.47 0 0 1-3.38 1.54zM783.20959 676.19a4.54 4.54 0 0 1-0.09-9.08l52.2-0.94h0.09a4.54 4.54 0 0 1 0.09 9.08l-52.2 0.94z" p-id="1492" fill="#2c2c2c"></path><path d="M809.78959 701.83a4.55 4.55 0 0 1-4.54-4.45l-1-52.2a4.54 4.54 0 0 1 4.45-4.63h0.09a4.55 4.55 0 0 1 4.54 4.45l1 52.2a4.54 4.54 0 0 1-4.45 4.63zM295.19959 30.59a4.54 4.54 0 0 1-0.09-9.08l26.58-0.51h0.09a4.54 4.54 0 0 1 0.09 9.08l-26.58 0.48z" p-id="1493" fill="#2c2c2c"></path><path d="M308.72959 43.64a4.55 4.55 0 0 1-4.54-4.46l-0.48-26.57A4.54 4.54 0 0 1 308.16959 8h0.09a4.55 4.55 0 0 1 4.54 4.46l0.47 26.54a4.53 4.53 0 0 1-4.45 4.62zM803.86959 507.63a9.6 9.6 0 0 1-1.74-0.16 9.1 9.1 0 0 1-7.2-10.64 321.66 321.66 0 0 0-6.08-146 9.08 9.08 0 0 1 17.48-4.95 340.68 340.68 0 0 1 6.44 154.38 9.09 9.09 0 0 1-8.9 7.37zM792.25959 548.23a9.34 9.34 0 0 1-3.23-0.59 9.11 9.11 0 0 1-5.27-11.72c1.26-3.28 2.39-6.56 3.48-9.84a9.07 9.07 0 1 1 17.23 5.67c-1.15 3.53-2.39 7.09-3.72 10.62a9.11 9.11 0 0 1-8.49 5.86z" p-id="1494" fill="#2c2c2c"></path></svg>